<svg width="41" height="41" viewBox="0 0 41 41" fill="none" xmlns="http://www.w3.org/2000/svg">
<g id="Bell">
<path id="Icon" d="M23.3833 35.5C23.0903 36.0052 22.6697 36.4245 22.1637 36.7159C21.6577 37.0074 21.084 37.1608 20.5 37.1608C19.916 37.1608 19.3423 37.0074 18.8363 36.7159C18.3303 36.4245 17.9097 36.0052 17.6167 35.5M30.5 13.8334C30.5 11.1812 29.4464 8.63767 27.5711 6.76231C25.6957 4.88694 23.1522 3.83337 20.5 3.83337C17.8478 3.83337 15.3043 4.88694 13.4289 6.76231C11.5536 8.63767 10.5 11.1812 10.5 13.8334C10.5 25.5 5.5 28.8334 5.5 28.8334H35.5C35.5 28.8334 30.5 25.5 30.5 13.8334Z" stroke="#1E1E1E" stroke-width="4" stroke-linecap="round" stroke-linejoin="round"/>
</g>
</svg>
