<svg width="40" height="41" viewBox="0 0 40 41" fill="none" xmlns="http://www.w3.org/2000/svg">
<g id="Linkedin" opacity="0.5">
<g id="Icon">
<path d="M26.6668 13.8334C29.319 13.8334 31.8625 14.8869 33.7379 16.7623C35.6133 18.6377 36.6668 21.1812 36.6668 23.8334V35.5H30.0002V23.8334C30.0002 22.9493 29.649 22.1015 29.0239 21.4764C28.3987 20.8512 27.5509 20.5 26.6668 20.5C25.7828 20.5 24.9349 20.8512 24.3098 21.4764C23.6847 22.1015 23.3335 22.9493 23.3335 23.8334V35.5H16.6668V23.8334C16.6668 21.1812 17.7204 18.6377 19.5958 16.7623C21.4711 14.8869 24.0147 13.8334 26.6668 13.8334Z" stroke="#1E1E1E" stroke-width="4" stroke-linecap="round" stroke-linejoin="round"/>
<path d="M10.0002 15.5H3.3335V35.5H10.0002V15.5Z" stroke="#1E1E1E" stroke-width="4" stroke-linecap="round" stroke-linejoin="round"/>
<path d="M6.66683 10.5C8.50778 10.5 10.0002 9.00766 10.0002 7.16671C10.0002 5.32576 8.50778 3.83337 6.66683 3.83337C4.82588 3.83337 3.3335 5.32576 3.3335 7.16671C3.3335 9.00766 4.82588 10.5 6.66683 10.5Z" stroke="#1E1E1E" stroke-width="4" stroke-linecap="round" stroke-linejoin="round"/>
</g>
</g>
</svg>
