<svg width="23" height="21" viewBox="0 0 23 21" fill="none" xmlns="http://www.w3.org/2000/svg">
<path id="icon" d="M4 17.75V19C4 19.3542 3.88021 19.651 3.64063 19.8906C3.40104 20.1302 3.10417 20.25 2.75 20.25H1.5C1.14583 20.25 0.848958 20.1302 0.609375 19.8906C0.369792 19.651 0.25 19.3542 0.25 19V9L2.875 1.5C3 1.125 3.22396 0.822917 3.54688 0.59375C3.86979 0.364583 4.22917 0.25 4.625 0.25H18.375C18.7708 0.25 19.1302 0.364583 19.4531 0.59375C19.776 0.822917 20 1.125 20.125 1.5L22.75 9V19C22.75 19.3542 22.6302 19.651 22.3906 19.8906C22.151 20.1302 21.8542 20.25 21.5 20.25H20.25C19.8958 20.25 19.599 20.1302 19.3594 19.8906C19.1198 19.651 19 19.3542 19 19V17.75H4ZM3.75 6.5H19.25L17.9375 2.75H5.0625L3.75 6.5ZM5.875 14C6.39583 14 6.83854 13.8177 7.20312 13.4531C7.56771 13.0885 7.75 12.6458 7.75 12.125C7.75 11.6042 7.56771 11.1615 7.20312 10.7969C6.83854 10.4323 6.39583 10.25 5.875 10.25C5.35417 10.25 4.91146 10.4323 4.54688 10.7969C4.18229 11.1615 4 11.6042 4 12.125C4 12.6458 4.18229 13.0885 4.54688 13.4531C4.91146 13.8177 5.35417 14 5.875 14ZM17.125 14C17.6458 14 18.0885 13.8177 18.4531 13.4531C18.8177 13.0885 19 12.6458 19 12.125C19 11.6042 18.8177 11.1615 18.4531 10.7969C18.0885 10.4323 17.6458 10.25 17.125 10.25C16.6042 10.25 16.1615 10.4323 15.7969 10.7969C15.4323 11.1615 15.25 11.6042 15.25 12.125C15.25 12.6458 15.4323 13.0885 15.7969 13.4531C16.1615 13.8177 16.6042 14 17.125 14ZM2.75 15.25H20.25V9H2.75V15.25Z" fill="#1D1B20"/>
</svg>
