<svg width="40" height="41" viewBox="0 0 40 41" fill="none" xmlns="http://www.w3.org/2000/svg">
<g id="Instagram" opacity="0.5">
<path id="Icon" d="M29.1668 11.3334H29.1835M11.6668 3.83337H28.3335C32.9359 3.83337 36.6668 7.56433 36.6668 12.1667V28.8334C36.6668 33.4357 32.9359 37.1667 28.3335 37.1667H11.6668C7.06446 37.1667 3.3335 33.4357 3.3335 28.8334V12.1667C3.3335 7.56433 7.06446 3.83337 11.6668 3.83337ZM26.6668 19.45C26.8725 20.8371 26.6356 22.2537 25.9898 23.4984C25.3439 24.7431 24.3221 25.7524 23.0695 26.3828C21.817 27.0133 20.3976 27.2327 19.0131 27.0099C17.6287 26.7872 16.3498 26.1335 15.3582 25.142C14.3667 24.1504 13.7131 22.8715 13.4903 21.4871C13.2675 20.1026 13.4869 18.6832 14.1174 17.4307C14.7478 16.1781 15.7571 15.1563 17.0018 14.5104C18.2465 13.8646 19.6631 13.6277 21.0502 13.8334C22.465 14.0432 23.7749 14.7025 24.7863 15.7139C25.7977 16.7253 26.457 18.0352 26.6668 19.45Z" stroke="#1E1E1E" stroke-width="4" stroke-linecap="round" stroke-linejoin="round"/>
</g>
</svg>
