<svg width="40" height="41" viewBox="0 0 40 41" fill="none" xmlns="http://www.w3.org/2000/svg">
<g id="Shopping cart" clip-path="url(#clip0_392_893)">
<path id="Icon" d="M1.66663 2.16663H8.33329L12.8 24.4833C12.9524 25.2506 13.3698 25.9399 13.9792 26.4305C14.5886 26.921 15.3511 27.1816 16.1333 27.1666H32.3333C33.1155 27.1816 33.878 26.921 34.4874 26.4305C35.0968 25.9399 35.5142 25.2506 35.6666 24.4833L38.3333 10.5H9.99996M16.6666 35.5C16.6666 36.4204 15.9204 37.1666 15 37.1666C14.0795 37.1666 13.3333 36.4204 13.3333 35.5C13.3333 34.5795 14.0795 33.8333 15 33.8333C15.9204 33.8333 16.6666 34.5795 16.6666 35.5ZM35 35.5C35 36.4204 34.2538 37.1666 33.3333 37.1666C32.4128 37.1666 31.6666 36.4204 31.6666 35.5C31.6666 34.5795 32.4128 33.8333 33.3333 33.8333C34.2538 33.8333 35 34.5795 35 35.5Z" stroke="#1E1E1E" stroke-width="4" stroke-linecap="round" stroke-linejoin="round"/>
</g>
<defs>
<clipPath id="clip0_392_893">
<rect width="40" height="40" fill="white" transform="translate(0 0.5)"/>
</clipPath>
</defs>
</svg>
