<svg width="31" height="30" viewBox="0 0 31 30" fill="none" xmlns="http://www.w3.org/2000/svg">
<g id="Users" clip-path="url(#clip0_165_974)">
<path id="Icon" d="M21.75 26.25V23.75C21.75 22.4239 21.2232 21.1521 20.2855 20.2145C19.3479 19.2768 18.0761 18.75 16.75 18.75H6.75C5.42392 18.75 4.15215 19.2768 3.21447 20.2145C2.27678 21.1521 1.75 22.4239 1.75 23.75V26.25M29.25 26.25V23.75C29.2492 22.6422 28.8804 21.566 28.2017 20.6904C27.523 19.8148 26.5727 19.1895 25.5 18.9125M20.5 3.9125C21.5755 4.18788 22.5288 4.81338 23.2095 5.69039C23.8903 6.5674 24.2598 7.64604 24.2598 8.75625C24.2598 9.86646 23.8903 10.9451 23.2095 11.8221C22.5288 12.6991 21.5755 13.3246 20.5 13.6M16.75 8.75C16.75 11.5114 14.5114 13.75 11.75 13.75C8.98858 13.75 6.75 11.5114 6.75 8.75C6.75 5.98858 8.98858 3.75 11.75 3.75C14.5114 3.75 16.75 5.98858 16.75 8.75Z" stroke="#1E1E1E" stroke-width="4" stroke-linecap="round" stroke-linejoin="round"/>
</g>
<defs>
<clipPath id="clip0_165_974">
<rect width="30" height="30" fill="white" transform="translate(0.5)"/>
</clipPath>
</defs>
</svg>
